<?xml version="1.0" encoding="utf-8"?>
<!-- Generator: Adobe Illustrator 22.0.1, SVG Export Plug-In . SVG Version: 6.00 Build 0)  -->
<svg version="1.1"
	 id="svg6282" inkscape:version="0.91 r13725" sodipodi:docname="GreenDuckPunchLLC_Logos.svg" xmlns:cc="http://creativecommons.org/ns#" xmlns:dc="http://purl.org/dc/elements/1.1/" xmlns:inkscape="http://www.inkscape.org/namespaces/inkscape" xmlns:rdf="http://www.w3.org/1999/02/22-rdf-syntax-ns#" xmlns:sodipodi="http://sodipodi.sourceforge.net/DTD/sodipodi-0.dtd" xmlns:svg="http://www.w3.org/2000/svg"
	 xmlns="http://www.w3.org/2000/svg" xmlns:xlink="http://www.w3.org/1999/xlink" x="0px" y="0px" viewBox="0 0 256 256"
	 style="enable-background:new 0 0 256 256;" xml:space="preserve">
<style type="text/css">
	.st0{opacity:0.96;fill:#B8B8B8;enable-background:new    ;}
	.st1{clip-path:url(#SVGID_2_);fill:#148014;stroke:#000000;stroke-width:4;}
	.st2{opacity:0.96;fill:none;stroke:#000000;stroke-width:4;enable-background:new    ;}
</style>
<sodipodi:namedview  bordercolor="#666666" borderopacity="1.0" id="base" inkscape:current-layer="layer1" inkscape:cx="385.94785" inkscape:cy="505.18431" inkscape:document-units="px" inkscape:pageopacity="0.0" inkscape:pageshadow="2" inkscape:snap-page="true" inkscape:window-height="1016" inkscape:window-maximized="1" inkscape:window-width="1920" inkscape:window-x="0" inkscape:window-y="27" inkscape:zoom="0.7" pagecolor="#ffffff" showgrid="false">
	</sodipodi:namedview>
<g id="layer1" inkscape:groupmode="layer" inkscape:label="Layer 1">
	<g id="g13105" transform="matrix(0.64063697,0,0,0.64063697,11.02696,657.37997)">
		<g id="flowRoot12418" transform="matrix(0.96907983,-0.24674742,0.24674742,0.96907983,-158.99321,-324.98982)">
			<path id="path12693" inkscape:connector-curvature="0" d="M314.8-504.8c-2.7-1.5-6.3-1.7-9.7-0.7c-5.7,1.6-10.1,6.5-8.6,11.7
				c1.5,5.2,7.8,7,13.5,5.3c2.9-0.8,5.2-3.2,8.2-4l-1-3.5l-1-3.5l-8.6,2.5l2,6.9c-0.6,0.2-1.2,0.3-1.8,0.4l-3.9-13.7
				c0.5-0.2,1.1-0.4,1.7-0.6c2.8-0.8,5.8-0.5,8.3,0.9L314.8-504.8L314.8-504.8z"/>
			<path id="path12695" inkscape:connector-curvature="0" d="M338-504.9c-0.7-3.5-2.9-5.7-6.2-5c-1.9,0.4-3.1,1.8-3.6,3.8l-0.5-2.5
				l-7.3,1.5l2.5,12.1l7.3-1.5l-0.8-4c-0.4-2.1-0.3-4.4,0.7-5.9l0.6,3.1L338-504.9L338-504.9z"/>
			<path id="path12697" inkscape:connector-curvature="0" d="M357.9-507.3l-0.3-0.8c-1.3-4-6.4-4.8-10.9-3.3
				c-4.4,1.5-8.1,5.2-6.7,9.2c1.3,4,6.4,4.8,10.9,3.3c2.7-0.9,5-2.6,6.2-4.6l-1.5-0.5c-1,1.6-3,2.8-5.2,3.6
				c-0.6,0.2-1.2,0.3-1.8,0.5l-1.3-3.8L357.9-507.3L357.9-507.3z M350.3-506.5l-3.4,1.1l-1.3-3.8c0.5-0.3,1.1-0.5,1.7-0.7
				c0.6-0.2,1.2-0.3,1.7-0.5L350.3-506.5L350.3-506.5z"/>
			<path id="path12699" inkscape:connector-curvature="0" d="M376.5-519.3l-0.3-0.7c-1.5-4-6.6-4.6-11-2.9c-4.4,1.6-7.9,5.4-6.4,9.4
				c1.5,4,6.6,4.6,11,2.9c2.7-1,5-2.7,6.1-4.8l-1.6-0.4c-1,1.6-2.9,2.9-5.1,3.7c-0.6,0.2-1.2,0.4-1.7,0.5l-1.4-3.8L376.5-519.3
				L376.5-519.3z M368.9-518.2l-3.4,1.2l-1.4-3.7c0.5-0.3,1.1-0.5,1.6-0.7c0.6-0.2,1.2-0.4,1.7-0.5L368.9-518.2z"/>
			<path id="path12701" inkscape:connector-curvature="0" d="M400-517.8l-1.4-6.7c-0.6-3-3-5.4-5.8-4.8c-2.7,0.5-4.7,2.5-5.4,5
				l-0.7-3.3l-7.3,1.5l2.5,12.1l7.3-1.5l-1.4-6.7c0.5-1.6,1.5-3,2.8-4l2,9.9L400-517.8L400-517.8z"/>
			<path id="path12703" inkscape:connector-curvature="0" d="M439.6-521.4c0-4.9-4.6-8.5-9.7-8.5h-12.5v16.9h12.5
				C435-512.9,439.6-516.5,439.6-521.4z M429.9-514.5h-3.6v-13.7h3.6V-514.5z"/>
			<path id="path12705" inkscape:connector-curvature="0" d="M459.1-524.9l0-12.3h-7.5v6.8c-0.8,1.5-2,2.7-3.6,3.3v-10.1h-7.5v6.8
				c0,3.1,1.9,5.9,4.7,5.9c2.7,0,5.1-1.5,6.3-3.8v3.4H459.1z"/>
			<path id="path12707" inkscape:connector-curvature="0" d="M479.7-536.2c-1.8-1.6-4.5-2.4-7.4-2.4c-4.7,0-9.3,2.3-9.3,6.6
				c0,4.2,4.6,6.6,9.3,6.6c2.3,0,4.7-0.6,6.4-1.7l-1.1-1.1c-1.5,0.8-3.4,1.2-5.3,1.2c-0.6,0-1.2,0-1.8-0.1v-9.6
				c0.6-0.1,1.2-0.1,1.8-0.1c2.3,0,4.6,0.6,6.1,1.7L479.7-536.2L479.7-536.2z"/>
			<path id="path12709" inkscape:connector-curvature="0" d="M501-522.9l-3-10.2l4.3-1.7l0.1-0.4l-2.6-0.5c-0.8,0.5-1.7,0.9-2.6,1.3
				l-6,2.4l1.7-9.6l-7.4-1.3l-3,16.7l7.4,1.3l0.9-5.3l0.5-0.2l1.8,6.1L501-522.9L501-522.9z"/>
			<path id="path12711" inkscape:connector-curvature="0" d="M535.7-518.9c0-4.2-4.1-5-8.9-5h-12.5v16.9h8.9v-6.8h3.6
				C531.6-513.8,535.7-514.7,535.7-518.9L535.7-518.9z M526.7-515.5h-3.6v-6.8h3.6V-515.5z"/>
			<path id="path12713" inkscape:connector-curvature="0" d="M554.5-504.6l1.6-12.2l-7.4-1l-0.9,6.8c-1,1.4-2.4,2.4-4,2.8l1.4-10
				l-7.4-1l-0.9,6.7c-0.4,3,1.1,6.1,3.9,6.5c2.7,0.4,5.3-0.8,6.8-2.9l-0.5,3.4L554.5-504.6L554.5-504.6z"/>
			<path id="path12715" inkscape:connector-curvature="0" d="M577.1-501.9l1.3-6.7c0.6-3-0.7-6.2-3.5-6.7c-2.7-0.5-5.3,0.5-7,2.5
				l0.7-3.3l-7.3-1.5l-2.4,12.1l7.3,1.5l1.3-6.7c1.1-1.3,2.5-2.2,4.2-2.5l-2,9.9L577.1-501.9z"/>
			<path id="path12717" inkscape:connector-curvature="0" d="M599-502.7c-0.8-2.2-2.9-4.3-5.4-5.6c-4.2-2.2-9.3-2.3-11.3,1.5
				c-2,3.7,1,7.9,5.2,10.1c2.1,1.1,4.4,1.7,6.5,1.5l-0.5-1.5c-1.7,0.1-3.5-0.5-5.2-1.4c-0.5-0.3-1-0.6-1.5-0.9l4.5-8.5
				c0.5,0.2,1.1,0.4,1.6,0.7c2,1.1,3.8,2.6,4.6,4.4L599-502.7L599-502.7z"/>
			<path id="path12719" inkscape:connector-curvature="0" d="M608.7-477.6l3.8-5.6c1.7-2.5,1.8-6-0.6-7.6c-2.2-1.5-5.1-1.6-7.4-0.4
				l4.5-6.6l-6.2-4.2l-9.5,14l6.2,4.2l3.8-5.7c1.5-0.8,3.2-1.1,4.8-0.7l-5.7,8.4L608.7-477.6z"/>
		</g>
		<g id="g12859">
			<g id="g12428" transform="translate(-4.9192491,0)">
				<path id="path12254" inkscape:connector-curvature="0" class="st0" d="M227.4-682.7c-2.5-2.9-0.9-19.2,2.3-24.6
					c2.6-4.3,2.6-4.3,50.9-15.9c57.1-13.7,64.6-16.6,67.5-25.9c0.5-1.6-3.1-24.8-8.2-52.2c-5-27.1-8.8-49.6-8.5-49.9
					c0.3-0.3,8.4,4.1,17.9,9.7c17.3,10.4,17.3,10.4,16.6,25.6c-0.4,8.4-1.5,36-2.5,61.4c-2.6,66.1,1.9,61.8-71.1,68
					c-27.7,2.4-53.3,4.6-56.8,5C230.9-681,228.6-681.3,227.4-682.7L227.4-682.7z M110.4-761.9c-8.5-30.1-16.1-56.9-16.9-59.7
					c-1.1-3.8-2.2-5-4.5-5c-7.6,0.1-7.7-0.6,7.2,52.4c16.1,57.4,16.2,51.5-1.2,56.5c-28.5,8.2-27.2,9.5-50.1-51.9
					c-29.4-78.7-30.3-88.7-9.3-102.4c11.7-7.6,11.7-7.6,22.8-7.6c14.3,0,15.8-1,22.2-15.9c6.3-14.5,5.3-13.7,22.7-18.7
					c14.6-4.2,17.6-4.3,29.4-1.1c9.1,2.5,12.7,0.4,19-11.1c6.8-12.4,6.8-12.4,27.2-16.9c20.8-4.6,20-4.7,31.9,5.6
					c13.6,11.9,18.8,12.6,28.8,4.3c7.2-5.9,8.8-6.4,29.2-9.3c17.1-2.4,17.1-2.4,21.1,2.1c4.6,5.2,13.2,19.3,16.7,27.1
					c2.5,5.8,31.3,159.5,30.3,162.1c-2.4,6.3-53.8,15.8-57.9,10.7c-0.7-0.9-7.4-28.4-14.9-61c-13.5-59.3-13.5-59.3-17.1-58.5
					c-2,0.4-4.2,1.3-4.8,1.9c-0.7,0.6,4,26.1,11.4,61.8c7,33.4,12.6,61.2,12.6,61.7c0,4.7-43.6,15.6-62.7,15.6
					c-8.5,0-8.5,0-23.4-61.3c-8.2-33.7-15-61.5-15.2-61.7c-1.4-1.3-9.1,1.7-9.1,3.5c0,1.2,6.1,28.4,13.6,60.5
					c8.9,38.1,13.1,58.9,12.3,59.9c-3.3,4-33.4,11-47.1,11C125.9-707.2,125.9-707.2,110.4-761.9L110.4-761.9z"/>
				<g>
					<defs>
						<path id="SVGID_1_" d="M228.8-683.5c-2.5-2.9-0.9-19.2,2.3-24.6c2.6-4.3,2.6-4.3,50.9-15.9c57.1-13.7,64.6-16.6,67.5-25.9
							c0.5-1.6-3.1-24.8-8.2-52.2c-5-27.1-8.8-49.6-8.5-49.9c0.3-0.3,8.4,4.1,17.9,9.7c17.3,10.4,17.3,10.4,16.6,25.6
							c-0.4,8.4-1.5,36-2.5,61.4c-2.6,66.1,1.9,61.8-71.1,68c-27.7,2.4-53.3,4.6-56.8,5C232.2-681.7,230-682.1,228.8-683.5z
							 M111.8-762.6c-8.5-30.1-16.1-56.9-16.9-59.7c-1.1-3.8-2.2-5-4.5-5c-7.6,0.1-7.7-0.6,7.2,52.4c16.1,57.4,16.2,51.5-1.2,56.5
							c-28.5,8.2-27.2,9.5-50.1-51.9C16.8-849,15.9-858.9,37-872.7c11.7-7.6,11.7-7.6,22.8-7.6c14.3,0,15.8-1,22.2-15.9
							c6.3-14.5,5.3-13.7,22.7-18.7c14.6-4.2,17.6-4.3,29.4-1.1c9.1,2.5,12.7,0.4,19-11.1c6.8-12.4,6.8-12.4,27.2-16.9
							c20.8-4.6,20-4.7,31.9,5.6c13.6,11.9,18.8,12.6,28.8,4.3c7.2-5.9,8.8-6.4,29.2-9.3c17.1-2.4,17.1-2.4,21.1,2.1
							c4.6,5.2,13.2,19.3,16.7,27.1c2.5,5.8,31.3,159.5,30.3,162.1c-2.4,6.3-53.8,15.8-57.9,10.7c-0.7-0.9-7.4-28.4-14.9-61
							c-13.5-59.3-13.5-59.3-17.1-58.5c-2,0.4-4.2,1.3-4.8,1.9c-0.7,0.6,4,26.1,11.4,61.8c7,33.4,12.6,61.2,12.6,61.7
							c0,4.7-43.6,15.6-62.7,15.6c-8.5,0-8.5,0-23.4-61.3c-8.2-33.7-15-61.5-15.2-61.7c-1.4-1.3-9.1,1.7-9.1,3.5
							c0,1.2,6.1,28.4,13.6,60.5c8.9,38.1,13.1,58.9,12.3,59.9c-3.3,4-33.4,11-47.1,11C127.3-707.9,127.3-707.9,111.8-762.6
							L111.8-762.6z"/>
					</defs>
					<clipPath id="SVGID_2_">
						<use xlink:href="#SVGID_1_"  style="overflow:visible;"/>
					</clipPath>
					<path id="path12256" inkscape:connector-curvature="0" sodipodi:nodetypes="cccccccccccccccccc" class="st1" d="M84-778.2
						c4.4-14.9-1.6-31.1,28.6-42.6v-12.6L67.9-827c-4.4-1.7-3.2-4.4-2.1-7l32.1-22.3c7.3-25.1,18.1-43.4,38.4-42.6
						c24.4-0.1,35.8,14.1,39.8,36.3l2.8,23.7c32.6-1.8,65.1,6.8,97.7,14c8,5.8,18.9,11.6,18.1,17.4c16.7-0.3,28.4,5.7,37.7,14.7
						c4.3-0.1,7.2,0.8,16.7-2.8c11.5,0.5,9.4,10.7,8.4,20.2l-42.6,7L257-743.3c-29.6,12.7-50.2,5.5-78.9,4.9
						C132.9-743.6,107.2-760.1,84-778.2L84-778.2z"/>
				</g>
				<path id="path12254-3" inkscape:connector-curvature="0" class="st2" d="M228.8-683.1c-2.5-2.9-0.9-19.2,2.3-24.6
					c2.6-4.3,2.6-4.3,50.9-15.9c57.1-13.7,64.6-16.6,67.5-25.9c0.5-1.6-3.1-24.8-8.2-52.2c-5-27.1-8.8-49.6-8.5-49.9
					s8.4,4.1,17.9,9.7c17.3,10.4,17.3,10.4,16.6,25.6c-0.4,8.4-1.5,36-2.5,61.4c-2.6,66.1,1.9,61.8-71.1,68
					c-27.7,2.4-53.3,4.6-56.8,5C232.2-681.4,230-681.7,228.8-683.1L228.8-683.1z M111.8-762.3c-8.5-30.1-16.1-56.9-16.9-59.7
					c-1.1-3.8-2.2-5-4.5-5c-7.6,0.1-7.7-0.6,7.2,52.4c16.1,57.4,16.2,51.5-1.2,56.5c-28.5,8.2-27.2,9.5-50.1-51.9
					c-29.4-78.7-30.3-88.7-9.3-102.4c11.7-7.6,11.7-7.6,22.8-7.6c14.3,0,15.8-1,22.2-15.9c6.3-14.5,5.3-13.7,22.7-18.7
					c14.6-4.2,17.6-4.3,29.4-1.1c9.1,2.5,12.7,0.4,19-11.1c6.8-12.4,6.8-12.4,27.2-16.9c20.8-4.6,20-4.7,31.9,5.6
					c13.6,11.9,18.8,12.6,28.8,4.3c7.2-5.9,8.8-6.4,29.2-9.3c17.1-2.4,17.1-2.4,21.1,2.1c4.6,5.2,13.2,19.3,16.7,27.1
					c2.5,5.8,31.3,159.5,30.3,162.1c-2.4,6.3-53.8,15.8-57.9,10.7c-0.7-0.9-7.4-28.4-14.9-61c-13.5-59.3-13.5-59.3-17.1-58.5
					c-2,0.4-4.2,1.3-4.8,1.9c-0.7,0.6,4,26.1,11.4,61.8c7,33.4,12.6,61.2,12.6,61.7c0,4.7-43.6,15.6-62.7,15.6
					c-8.5,0-8.5,0-23.4-61.3c-8.2-33.7-15-61.5-15.2-61.7c-1.4-1.3-9.1,1.7-9.1,3.5c0,1.2,6.1,28.4,13.6,60.5
					c8.9,38.1,13.1,58.9,12.3,59.9c-3.3,4-33.4,11-47.1,11C127.3-707.6,127.3-707.6,111.8-762.3L111.8-762.3z"/>
			</g>
			
				<path id="path12811" sodipodi:cx="262.11111" sodipodi:cy="214.85747" sodipodi:end="6.1559508" sodipodi:open="true" sodipodi:rx="5.3886824" sodipodi:ry="5.3886824" sodipodi:start="0" sodipodi:type="arc" d="
				M118.9-863.3c0,2-1.6,3.7-3.6,3.7c-2,0.1-3.7-1.5-3.8-3.5s1.4-3.8,3.4-3.9c2-0.2,3.8,1.2,4,3.2"/>
		</g>
		<g id="flowRoot13028-1" transform="matrix(0.30185106,0.13552654,-0.13552654,0.30185106,595.56416,-37.632069)">
		</g>
	</g>
	<g id="flowRoot13162" transform="translate(-80.812204,26.304576)">
	</g>
	<g id="flowRoot13162-6" transform="translate(-75.775991,342.55902)">
	</g>
	<g id="flowRoot13162-8" transform="translate(-108.10087,655.94998)">
	</g>
</g>
</svg>
